<svg width="128" height="128" viewBox="0 0 128 128" fill="none" xmlns="http://www.w3.org/2000/svg">
<path d="M11.0415 116.003C11.4641 115.781 11.8705 115.435 12.2606 114.965C13.0499 114.059 13.9799 113.657 15.0507 113.758C16.1214 113.86 17.3328 114.091 18.685 114.45C21.1617 114.935 23.6643 114.999 26.1928 114.644C28.7203 114.288 30.8668 113.169 32.6324 111.285C34.1257 109.3 34.8587 107.03 34.8312 104.474C34.8038 101.919 34.4889 99.4301 33.8865 97.0072C33.3714 95.773 33.057 94.6616 32.9432 93.6731C32.8305 92.6847 33.278 91.8624 34.2857 91.2061C35.1919 90.3772 36.2392 90.0429 37.4278 90.2034C38.6154 90.3639 39.8852 90.624 41.2373 90.9836C43.714 91.4682 46.2517 91.5479 48.8503 91.2229C51.4479 90.8988 53.6102 89.7641 55.3371 87.8187C56.8305 85.8337 57.538 83.5378 57.4598 80.931C57.3816 78.3253 57.022 75.8618 56.381 73.5406C55.9045 72.3063 55.6348 71.1949 55.5718 70.2065C55.5098 69.218 55.9827 68.3957 56.9905 67.7394C57.8966 66.9501 58.944 66.6159 60.1326 66.7368C61.3201 66.8577 62.59 67.0979 63.9421 67.4575C66.4188 67.9421 68.931 68.0163 71.4789 67.68C74.0257 67.3448 76.1824 66.2354 77.949 64.352C79.4413 62.367 80.1387 60.0813 80.0412 57.4949C79.9436 54.9084 79.5743 52.4348 78.9333 50.0739C78.4569 48.8396 78.1775 47.7029 78.0952 46.6636C78.013 45.6244 78.4955 44.7568 79.5429 44.061C80.4886 43.2716 81.536 42.9826 82.685 43.1939C83.8329 43.4052 85.1027 43.6709 86.4945 43.9909C88.9712 44.4754 91.4738 44.5496 94.0023 44.2133C96.5298 43.8781 98.6763 42.7688 100.442 40.8853C101.935 38.9003 102.668 36.6298 102.641 34.0739C102.613 31.519 102.298 29.0301 101.696 26.6072C101.181 25.3729 100.857 24.2362 100.724 23.197C100.591 22.1577 101.048 21.2902 102.095 20.5943C103.001 19.805 104.074 19.5159 105.314 19.7272C106.552 19.9385 107.847 20.2042 109.199 20.5242C111.676 21.0088 114.188 21.0733 116.736 20.7177C119.283 20.3622 121.42 19.2117 123.147 17.2663C123.569 16.3906 123.634 15.4057 123.34 14.3116C123.048 13.2175 122.366 12.4013 121.295 11.8629C120.341 11.2838 119.288 11.0822 118.136 11.2579C116.983 11.4347 116.099 11.9995 115.482 12.9524C114.669 14.078 113.767 14.5935 112.774 14.4991C111.782 14.4056 110.629 14.1597 109.315 13.7615C106.838 13.277 104.326 13.187 101.778 13.4918C99.2315 13.7966 97.0946 14.9217 95.3676 16.867C93.8743 18.8917 93.1413 21.1718 93.1688 23.7074C93.1962 26.243 93.5111 28.7223 94.1135 31.1451C94.6286 32.3794 94.9526 33.5162 95.0857 34.5554C95.2188 35.5947 94.7617 36.4622 93.7143 37.1581C92.8081 37.9474 91.7354 38.2364 90.496 38.0251C89.2577 37.8138 87.9624 37.5482 86.6103 37.2282C84.1336 36.7436 81.631 36.6695 79.1025 37.0057C76.575 37.3409 74.4284 38.4503 72.6629 40.3337C71.1695 42.3187 70.4366 44.5892 70.464 47.1451C70.4914 49.7001 70.8064 52.189 71.4088 54.6118C71.9238 55.8461 72.2479 56.9829 72.381 58.0221C72.514 59.0613 72.0569 59.9289 71.0095 60.6248C70.1034 61.4141 69.0306 61.7031 67.7912 61.4918C66.5529 61.2805 65.2577 61.0149 63.9055 60.6949C61.4288 60.2103 58.9262 60.1361 56.3977 60.4724C53.8702 60.8076 51.7237 61.917 49.9581 63.8004C48.4648 65.7854 47.7572 68.0813 47.8354 70.688C47.9137 73.2937 48.2733 75.7572 48.9143 78.0785C49.3907 79.3128 49.6955 80.4495 49.8286 81.4888C49.9617 82.528 49.5045 83.3956 48.4571 84.0914C47.551 84.8808 46.4782 85.1601 45.2389 84.9295C44.0005 84.6989 42.7053 84.4231 41.3531 84.1021C38.8764 83.6175 36.3738 83.553 33.8453 83.9086C31.3178 84.2641 29.1713 85.3836 27.4057 87.2671C25.9124 89.2521 25.2048 91.5479 25.283 94.1547C25.3613 96.7604 25.7209 99.2239 26.3619 101.545C26.8384 102.779 27.1177 103.916 27.2 104.955C27.2823 105.995 26.7997 106.862 25.7524 107.558C24.8462 108.347 23.809 108.627 22.6408 108.396C21.4725 108.166 20.1925 107.89 18.8008 107.569C16.3241 107.084 13.8215 107.02 11.293 107.375C8.76546 107.731 6.61892 108.85 4.85333 110.734C4.43073 111.609 4.36622 112.594 4.65981 113.688C4.95238 114.782 5.63403 115.599 6.70476 116.137C7.29092 116.45 7.81867 116.611 8.288 116.619C8.75632 116.626 9.19772 116.571 9.61219 116.454C10.1435 116.376 10.6199 116.226 11.0415 116.003Z" fill="#3B82F6"/>
<path d="M27.4286 54.8571C19.8563 54.8571 13.3917 52.1788 8.03505 46.8221C2.67835 41.4654 0 35.0009 0 27.4286C0 19.7547 2.67835 13.2648 8.03505 7.95885C13.3917 2.65295 19.8563 0 27.4286 0C35.1025 0 41.5924 2.65295 46.8983 7.95885C52.2042 13.2648 54.8571 19.7547 54.8571 27.4286C54.8571 35.0009 52.2042 41.4654 46.8983 46.8221C41.5924 52.1788 35.1025 54.8571 27.4286 54.8571ZM27.4286 47.9406C33.1876 47.9406 38.046 45.9363 42.0038 41.9276C45.9617 37.919 47.9406 33.086 47.9406 27.4286C47.9406 21.6696 45.9617 16.8112 42.0038 12.8533C38.046 8.89549 33.1876 6.91657 27.4286 6.91657C21.7712 6.91657 16.9382 8.89549 12.9295 12.8533C8.92089 16.8112 6.91657 21.6696 6.91657 27.4286C6.91657 33.086 8.92089 37.919 12.9295 41.9276C16.9382 45.9363 21.7712 47.9406 27.4286 47.9406Z" fill="#EF4444"/>
<path d="M88.029 128C85.6071 128 83.5363 127.141 81.8164 125.422C80.0975 123.702 79.2381 121.631 79.2381 119.209V88.029C79.2381 85.6071 80.0975 83.5363 81.8164 81.8164C83.5363 80.0975 85.6071 79.2381 88.029 79.2381H119.209C121.631 79.2381 123.702 80.0975 125.422 81.8164C127.141 83.5363 128 85.6071 128 88.029V119.209C128 121.631 127.141 123.702 125.422 125.422C123.702 127.141 121.631 128 119.209 128H88.029ZM88.029 121.083H119.209C119.756 121.083 120.205 120.908 120.556 120.556C120.908 120.205 121.083 119.756 121.083 119.209V88.029C121.083 87.4824 120.908 87.0334 120.556 86.6819C120.205 86.3304 119.756 86.1547 119.209 86.1547H88.029C87.4824 86.1547 87.0334 86.3304 86.6819 86.6819C86.3304 87.0334 86.1547 87.4824 86.1547 88.029V119.209C86.1547 119.756 86.3304 120.205 86.6819 120.556C87.0334 120.908 87.4824 121.083 88.029 121.083Z" fill="#F59E0B"/>
</svg>
