<svg width="16" height="16" viewBox="0 0 16 16" fill="none" xmlns="http://www.w3.org/2000/svg">
<path d="M1.38019 14.5004C1.43302 14.4726 1.48381 14.4293 1.53257 14.3707C1.63124 14.2574 1.74749 14.2071 1.88133 14.2198C2.01517 14.2325 2.1666 14.2613 2.33562 14.3063C2.64521 14.3669 2.95803 14.3749 3.2741 14.3305C3.59003 14.286 3.85835 14.1461 4.07905 13.9107C4.26571 13.6625 4.35733 13.3787 4.3539 13.0592C4.35048 12.7399 4.31111 12.4288 4.23581 12.1259C4.17143 11.9716 4.13213 11.8327 4.11791 11.7091C4.10381 11.5856 4.15975 11.4828 4.28571 11.4008C4.39898 11.2971 4.5299 11.2554 4.67848 11.2754C4.82692 11.2955 4.98565 11.328 5.15467 11.373C5.46425 11.4335 5.78146 11.4435 6.10629 11.4029C6.43098 11.3623 6.70127 11.2205 6.91714 10.9773C7.10381 10.7292 7.19225 10.4422 7.18248 10.1164C7.1727 9.79067 7.12775 9.48273 7.04762 9.19257C6.98806 9.03829 6.95435 8.89937 6.94648 8.77581C6.93873 8.65225 6.99784 8.54946 7.12381 8.46743C7.23708 8.36876 7.368 8.32698 7.51657 8.3421C7.66502 8.35721 7.82375 8.38724 7.99276 8.43219C8.30235 8.49276 8.61638 8.50203 8.93486 8.46C9.25321 8.4181 9.52279 8.27943 9.74362 8.044C9.93016 7.79587 10.0173 7.51016 10.0051 7.18686C9.99295 6.86356 9.94679 6.55435 9.86667 6.25924C9.80711 6.10495 9.77219 5.96286 9.7619 5.83295C9.75162 5.70305 9.81194 5.5946 9.94286 5.50762C10.0611 5.40895 10.192 5.37283 10.3356 5.39924C10.4791 5.42565 10.6378 5.45886 10.8118 5.49886C11.1214 5.55943 11.4342 5.5687 11.7503 5.52667C12.0662 5.48476 12.3345 5.3461 12.5552 5.11067C12.7419 4.86254 12.8335 4.57873 12.8301 4.25924C12.8267 3.93987 12.7873 3.62876 12.712 3.3259C12.6476 3.17162 12.6071 3.02952 12.5905 2.89962C12.5738 2.76971 12.631 2.66127 12.7619 2.57429C12.8752 2.47562 13.0093 2.43949 13.1642 2.46591C13.319 2.49232 13.4809 2.52552 13.6499 2.56552C13.9595 2.6261 14.2735 2.63416 14.592 2.58971C14.9103 2.54527 15.1775 2.40146 15.3933 2.15829C15.4462 2.04883 15.4542 1.92571 15.4175 1.78895C15.381 1.65219 15.2957 1.55016 15.1619 1.48286C15.0427 1.41048 14.911 1.38527 14.767 1.40724C14.6229 1.42933 14.5123 1.49994 14.4352 1.61905C14.3337 1.75975 14.2208 1.82419 14.0968 1.81238C13.9727 1.8007 13.8286 1.76997 13.6644 1.72019C13.3548 1.65962 13.0408 1.64838 12.7223 1.68648C12.4039 1.72457 12.1368 1.86521 11.921 2.10838C11.7343 2.36146 11.6427 2.64648 11.6461 2.96343C11.6495 3.28038 11.6889 3.59029 11.7642 3.89314C11.8286 4.04743 11.8691 4.18952 11.8857 4.31943C11.9023 4.44933 11.8452 4.55778 11.7143 4.64476C11.601 4.74343 11.4669 4.77956 11.312 4.75314C11.1572 4.72673 10.9953 4.69352 10.8263 4.65352C10.5167 4.59295 10.2039 4.58368 9.88781 4.62571C9.57187 4.66762 9.30356 4.80629 9.08286 5.04171C8.89619 5.28984 8.80457 5.57365 8.808 5.89314C8.81143 6.21251 8.85079 6.52362 8.9261 6.82648C8.99048 6.98076 9.03098 7.12286 9.04762 7.25276C9.06425 7.38267 9.00711 7.49111 8.87619 7.5781C8.76292 7.67676 8.62883 7.71289 8.47391 7.68648C8.31911 7.66006 8.15721 7.62686 7.98819 7.58686C7.6786 7.52629 7.36578 7.51702 7.04971 7.55905C6.73378 7.60095 6.46546 7.73962 6.24476 7.97505C6.0581 8.22317 5.96965 8.51016 5.97943 8.836C5.98921 9.16171 6.03416 9.46965 6.11429 9.75981C6.17384 9.9141 6.21194 10.0562 6.22857 10.1861C6.24521 10.316 6.18806 10.4244 6.05714 10.5114C5.94387 10.6101 5.80978 10.645 5.65486 10.6162C5.50006 10.5874 5.33816 10.5529 5.16914 10.5128C4.85956 10.4522 4.54673 10.4441 4.23067 10.4886C3.91473 10.533 3.64641 10.673 3.42571 10.9084C3.23905 11.1565 3.1506 11.4435 3.16038 11.7693C3.17016 12.095 3.21511 12.403 3.29524 12.6931C3.35479 12.8474 3.38971 12.9895 3.4 13.1194C3.41029 13.2493 3.34997 13.3578 3.21905 13.4448C3.10578 13.5434 2.97613 13.5783 2.8301 13.5495C2.68406 13.5207 2.52406 13.4862 2.3501 13.4461C2.04051 13.3855 1.72768 13.3775 1.41162 13.4219C1.09568 13.4664 0.827365 13.6063 0.606667 13.8417C0.553841 13.9512 0.545778 14.0743 0.582476 14.211C0.619048 14.3478 0.704254 14.4498 0.838095 14.5171C0.911365 14.5563 0.977333 14.5763 1.036 14.5773C1.09454 14.5782 1.14971 14.5714 1.20152 14.5568C1.26794 14.547 1.32749 14.5282 1.38019 14.5004Z" fill="#3B82F6"/>
<path d="M3.42857 6.85714C2.48203 6.85714 1.67397 6.52235 1.00438 5.85276C0.334794 5.18318 0 4.37511 0 3.42857C0 2.46933 0.334794 1.65809 1.00438 0.994857C1.67397 0.331619 2.48203 0 3.42857 0C4.38781 0 5.19905 0.331619 5.86229 0.994857C6.52552 1.65809 6.85714 2.46933 6.85714 3.42857C6.85714 4.37511 6.52552 5.18318 5.86229 5.85276C5.19905 6.52235 4.38781 6.85714 3.42857 6.85714ZM3.42857 5.99257C4.14844 5.99257 4.75575 5.74203 5.25048 5.24095C5.74521 4.73987 5.99257 4.13575 5.99257 3.42857C5.99257 2.7087 5.74521 2.1014 5.25048 1.60667C4.75575 1.11194 4.14844 0.864572 3.42857 0.864572C2.7214 0.864572 2.11727 1.11194 1.61619 1.60667C1.11511 2.1014 0.864571 2.7087 0.864571 3.42857C0.864571 4.13575 1.11511 4.73987 1.61619 5.24095C2.11727 5.74203 2.7214 5.99257 3.42857 5.99257Z" fill="#EF4444"/>
<path d="M11.0036 16C10.7009 16 10.442 15.8926 10.227 15.6777C10.0122 15.4627 9.90476 15.2039 9.90476 14.9011V11.0036C9.90476 10.7009 10.0122 10.442 10.227 10.227C10.442 10.0122 10.7009 9.90476 11.0036 9.90476H14.9011C15.2039 9.90476 15.4627 10.0122 15.6777 10.227C15.8926 10.442 16 10.7009 16 11.0036V14.9011C16 15.2039 15.8926 15.4627 15.6777 15.6777C15.4627 15.8926 15.2039 16 14.9011 16H11.0036ZM11.0036 15.1354H14.9011C14.9695 15.1354 15.0256 15.1135 15.0695 15.0695C15.1135 15.0256 15.1354 14.9695 15.1354 14.9011V11.0036C15.1354 10.9353 15.1135 10.8792 15.0695 10.8352C15.0256 10.7913 14.9695 10.7693 14.9011 10.7693H11.0036C10.9353 10.7693 10.8792 10.7913 10.8352 10.8352C10.7913 10.8792 10.7693 10.9353 10.7693 11.0036V14.9011C10.7693 14.9695 10.7913 15.0256 10.8352 15.0695C10.8792 15.1135 10.9353 15.1354 11.0036 15.1354Z" fill="#F59E0B"/>
</svg>
