<svg width="32" height="32" viewBox="0 0 32 32" fill="none" xmlns="http://www.w3.org/2000/svg">
<path d="M2.76038 29.0008C2.86603 28.9451 2.96762 28.8587 3.06514 28.7413C3.26248 28.5148 3.49498 28.4142 3.76267 28.4396C4.03035 28.465 4.33321 28.5227 4.67124 28.6126C5.29041 28.7337 5.91606 28.7498 6.54819 28.661C7.18006 28.5721 7.7167 28.2922 8.1581 27.8213C8.53143 27.3251 8.71467 26.7575 8.70781 26.1185C8.70095 25.4797 8.62222 24.8575 8.47162 24.2518C8.34286 23.9432 8.26425 23.6654 8.23581 23.4183C8.20762 23.1712 8.31949 22.9656 8.57143 22.8015C8.79797 22.5943 9.05981 22.5107 9.35695 22.5509C9.65384 22.591 9.9713 22.656 10.3093 22.7459C10.9285 22.867 11.5629 22.887 12.2126 22.8057C12.862 22.7247 13.4025 22.441 13.8343 21.9547C14.2076 21.4584 14.3845 20.8844 14.365 20.2328C14.3454 19.5813 14.2555 18.9655 14.0952 18.3851C13.9761 18.0766 13.9087 17.7987 13.893 17.5516C13.8775 17.3045 13.9957 17.0989 14.2476 16.9349C14.4742 16.7375 14.736 16.654 15.0331 16.6842C15.33 16.7144 15.6475 16.7745 15.9855 16.8644C16.6047 16.9855 17.2328 17.0041 17.8697 16.92C18.5064 16.8362 19.0456 16.5589 19.4872 16.088C19.8603 15.5917 20.0347 15.0203 20.0103 14.3737C19.9859 13.7271 19.8936 13.1087 19.7333 12.5185C19.6142 12.2099 19.5444 11.9257 19.5238 11.6659C19.5032 11.4061 19.6239 11.1892 19.8857 11.0152C20.1222 10.8179 20.384 10.7457 20.6712 10.7985C20.9582 10.8513 21.2757 10.9177 21.6236 10.9977C22.2428 11.1189 22.8684 11.1374 23.5006 11.0533C24.1324 10.9695 24.6691 10.6922 25.1105 10.2213C25.4838 9.72508 25.667 9.15746 25.6602 8.51848C25.6533 7.87975 25.5746 7.25752 25.424 6.65181C25.2952 6.34324 25.2142 6.05905 25.181 5.79924C25.1477 5.53943 25.262 5.32254 25.5238 5.14857C25.7503 4.95124 26.0185 4.87898 26.3284 4.93181C26.638 4.98464 26.9618 5.05105 27.2998 5.13105C27.919 5.25219 28.547 5.26832 29.184 5.17943C29.8207 5.09054 30.3549 4.80292 30.7867 4.31657C30.8923 4.09765 30.9084 3.85143 30.835 3.5779C30.7619 3.30438 30.5915 3.10032 30.3238 2.96571C30.0853 2.82095 29.8221 2.77054 29.5341 2.81448C29.2458 2.85867 29.0246 2.99987 28.8705 3.2381C28.6673 3.51949 28.4417 3.64838 28.1935 3.62476C27.9454 3.6014 27.6571 3.53994 27.3288 3.44038C26.7096 3.31924 26.0815 3.29676 25.4446 3.37295C24.8079 3.44914 24.2737 3.73041 23.8419 4.21676C23.4686 4.72292 23.2853 5.29295 23.2922 5.92686C23.299 6.56076 23.3778 7.18057 23.5284 7.78629C23.6571 8.09486 23.7382 8.37905 23.7714 8.63886C23.8047 8.89867 23.6904 9.11555 23.4286 9.28952C23.202 9.48686 22.9338 9.55911 22.624 9.50629C22.3144 9.45346 21.9906 9.38705 21.6526 9.30705C21.0334 9.1859 20.4077 9.16736 19.7756 9.25143C19.1437 9.33524 18.6071 9.61257 18.1657 10.0834C17.7924 10.5797 17.6091 11.1473 17.616 11.7863C17.6229 12.425 17.7016 13.0472 17.8522 13.653C17.981 13.9615 18.062 14.2457 18.0952 14.5055C18.1285 14.7653 18.0142 14.9822 17.7524 15.1562C17.5258 15.3535 17.2577 15.4258 16.9478 15.373C16.6382 15.3201 16.3144 15.2537 15.9764 15.1737C15.3572 15.0526 14.7316 15.034 14.0994 15.1181C13.4676 15.2019 12.9309 15.4792 12.4895 15.9501C12.1162 16.4463 11.9393 17.0203 11.9589 17.672C11.9784 18.3234 12.0683 18.9393 12.2286 19.5196C12.3477 19.8282 12.4239 20.1124 12.4571 20.3722C12.4904 20.632 12.3761 20.8489 12.1143 21.0229C11.8877 21.2202 11.6196 21.29 11.3097 21.2324C11.0001 21.1747 10.6763 21.1058 10.3383 21.0255C9.71911 20.9044 9.09346 20.8883 8.46133 20.9771C7.82946 21.066 7.29283 21.3459 6.85143 21.8168C6.4781 22.313 6.30121 22.887 6.32076 23.5387C6.34032 24.1901 6.43022 24.806 6.59048 25.3863C6.70959 25.6949 6.77943 25.9791 6.8 26.2389C6.82057 26.4987 6.69994 26.7156 6.4381 26.8895C6.21156 27.0869 5.95225 27.1567 5.66019 27.099C5.36813 27.0414 5.04813 26.9724 4.70019 26.8922C4.08102 26.771 3.45537 26.7549 2.82324 26.8438C2.19137 26.9327 1.65473 27.2126 1.21333 27.6834C1.10768 27.9024 1.09156 28.1486 1.16495 28.4221C1.2381 28.6956 1.40851 28.8997 1.67619 29.0343C1.82273 29.1125 1.95467 29.1526 2.072 29.1547C2.18908 29.1564 2.29943 29.1427 2.40305 29.1135C2.53587 29.094 2.65498 29.0564 2.76038 29.0008Z" fill="#3B82F6"/>
<path d="M6.85714 13.7143C4.96406 13.7143 3.34794 13.0447 2.00876 11.7055C0.669587 10.3664 0 8.75022 0 6.85714C0 4.93867 0.669587 3.31619 2.00876 1.98971C3.34794 0.663237 4.96406 0 6.85714 0C8.77562 0 10.3981 0.663237 11.7246 1.98971C13.051 3.31619 13.7143 4.93867 13.7143 6.85714C13.7143 8.75022 13.051 10.3664 11.7246 11.7055C10.3981 13.0447 8.77562 13.7143 6.85714 13.7143ZM6.85714 11.9851C8.29689 11.9851 9.51149 11.4841 10.501 10.4819C11.4904 9.47975 11.9851 8.27149 11.9851 6.85714C11.9851 5.4174 11.4904 4.20279 10.501 3.21333C9.51149 2.22387 8.29689 1.72914 6.85714 1.72914C5.44279 1.72914 4.23454 2.22387 3.23238 3.21333C2.23022 4.20279 1.72914 5.4174 1.72914 6.85714C1.72914 8.27149 2.23022 9.47975 3.23238 10.4819C4.23454 11.4841 5.44279 11.9851 6.85714 11.9851Z" fill="#EF4444"/>
<path d="M22.0072 32C21.4018 32 20.8841 31.7851 20.4541 31.3554C20.0244 30.9255 19.8095 30.4077 19.8095 29.8023V22.0072C19.8095 21.4018 20.0244 20.8841 20.4541 20.4541C20.8841 20.0244 21.4018 19.8095 22.0072 19.8095H29.8023C30.4077 19.8095 30.9255 20.0244 31.3554 20.4541C31.7851 20.8841 32 21.4018 32 22.0072V29.8023C32 30.4077 31.7851 30.9255 31.3554 31.3554C30.9255 31.7851 30.4077 32 29.8023 32H22.0072ZM22.0072 30.2709H29.8023C29.9389 30.2709 30.0512 30.2269 30.1391 30.1391C30.2269 30.0512 30.2709 29.9389 30.2709 29.8023V22.0072C30.2709 21.8706 30.2269 21.7583 30.1391 21.6705C30.0512 21.5826 29.9389 21.5387 29.8023 21.5387H22.0072C21.8706 21.5387 21.7583 21.5826 21.6705 21.6705C21.5826 21.7583 21.5387 21.8706 21.5387 22.0072V29.8023C21.5387 29.9389 21.5826 30.0512 21.6705 30.1391C21.7583 30.2269 21.8706 30.2709 22.0072 30.2709Z" fill="#F59E0B"/>
</svg>
