<svg width="48" height="48" viewBox="0 0 48 48" fill="none" xmlns="http://www.w3.org/2000/svg">
<path d="M4.14057 43.5011C4.29905 43.4177 4.45143 43.288 4.59771 43.112C4.89371 42.7722 5.24248 42.6213 5.644 42.6594C6.04552 42.6975 6.49981 42.784 7.00686 42.9189C7.93562 43.1006 8.8741 43.1248 9.82229 42.9914C10.7701 42.8581 11.575 42.4383 12.2371 41.732C12.7971 40.9876 13.072 40.1362 13.0617 39.1777C13.0514 38.2196 12.9333 37.2863 12.7074 36.3777C12.5143 35.9149 12.3964 35.4981 12.3537 35.1274C12.3114 34.7568 12.4792 34.4484 12.8571 34.2023C13.197 33.8914 13.5897 33.7661 14.0354 33.8263C14.4808 33.8865 14.957 33.984 15.464 34.1189C16.3928 34.3006 17.3444 34.3305 18.3189 34.2086C19.293 34.0871 20.1038 33.6615 20.7514 32.932C21.3114 32.1876 21.5768 31.3267 21.5474 30.3491C21.5181 29.372 21.3832 28.4482 21.1429 27.5777C20.9642 27.1149 20.863 26.6981 20.8394 26.3274C20.8162 25.9568 20.9935 25.6484 21.3714 25.4023C21.7112 25.1063 22.104 24.981 22.5497 25.0263C22.9951 25.0716 23.4712 25.1617 23.9783 25.2966C24.907 25.4783 25.8491 25.5061 26.8046 25.38C27.7596 25.2543 28.5684 24.8383 29.2309 24.132C29.7905 23.3876 30.052 22.5305 30.0154 21.5606C29.9789 20.5907 29.8404 19.663 29.6 18.7777C29.4213 18.3149 29.3166 17.8886 29.2857 17.4989C29.2549 17.1091 29.4358 16.7838 29.8286 16.5229C30.1832 16.2269 30.576 16.1185 31.0069 16.1977C31.4373 16.277 31.9135 16.3766 32.4354 16.4966C33.3642 16.6783 34.3027 16.7061 35.2509 16.58C36.1987 16.4543 37.0036 16.0383 37.6657 15.332C38.2257 14.5876 38.5006 13.7362 38.4903 12.7777C38.48 11.8196 38.3619 10.8863 38.136 9.97771C37.9429 9.51486 37.8213 9.08857 37.7714 8.69886C37.7215 8.30914 37.893 7.98381 38.2857 7.72286C38.6255 7.42686 39.0278 7.31848 39.4926 7.39772C39.957 7.47695 40.4427 7.57657 40.9497 7.69657C41.8785 7.87829 42.8206 7.90248 43.776 7.76914C44.7311 7.63581 45.5324 7.20438 46.18 6.47486C46.3385 6.14648 46.3627 5.77714 46.2526 5.36686C46.1429 4.95657 45.8872 4.65047 45.4857 4.44857C45.128 4.23143 44.7331 4.15581 44.3011 4.22171C43.8688 4.288 43.537 4.49981 43.3057 4.85714C43.001 5.27924 42.6625 5.47257 42.2903 5.43714C41.9181 5.4021 41.4857 5.30991 40.9931 5.16057C40.0644 4.97886 39.1223 4.94514 38.1669 5.05943C37.2118 5.17371 36.4105 5.59562 35.7629 6.32514C35.2029 7.08438 34.928 7.93943 34.9383 8.89029C34.9486 9.84114 35.0667 10.7709 35.2926 11.6794C35.4857 12.1423 35.6072 12.5686 35.6571 12.9583C35.7071 13.348 35.5356 13.6733 35.1429 13.9343C34.803 14.2303 34.4008 14.3387 33.936 14.2594C33.4716 14.1802 32.9859 14.0806 32.4789 13.9606C31.5501 13.7789 30.6116 13.751 29.6634 13.8771C28.7156 14.0029 27.9107 14.4189 27.2486 15.1251C26.6886 15.8695 26.4137 16.721 26.424 17.6794C26.4343 18.6375 26.5524 19.5709 26.7783 20.4794C26.9714 20.9423 27.093 21.3686 27.1429 21.7583C27.1928 22.148 27.0213 22.4733 26.6286 22.7343C26.2888 23.0303 25.8865 23.1387 25.4217 23.0594C24.9573 22.9802 24.4716 22.8806 23.9646 22.7606C23.0358 22.5789 22.0973 22.5511 21.1491 22.6771C20.2013 22.8029 19.3964 23.2189 18.7343 23.9251C18.1743 24.6695 17.909 25.5305 17.9383 26.508C17.9676 27.4851 18.1025 28.409 18.3429 29.2794C18.5215 29.7423 18.6358 30.1686 18.6857 30.5583C18.7356 30.948 18.5642 31.2733 18.1714 31.5343C17.8316 31.8303 17.4293 31.935 16.9646 31.8486C16.5002 31.7621 16.0145 31.6587 15.5074 31.5383C14.5787 31.3566 13.6402 31.3324 12.692 31.4657C11.7442 31.5991 10.9392 32.0189 10.2771 32.7251C9.71714 33.4695 9.45181 34.3305 9.48114 35.308C9.51048 36.2851 9.64533 37.209 9.88572 38.0794C10.0644 38.5423 10.1691 38.9686 10.2 39.3583C10.2309 39.748 10.0499 40.0733 9.65714 40.3343C9.31733 40.6303 8.92838 40.7351 8.49029 40.6486C8.05219 40.5621 7.57219 40.4587 7.05029 40.3383C6.12152 40.1566 5.18305 40.1324 4.23486 40.2657C3.28705 40.3991 2.4821 40.8189 1.82 41.5251C1.66152 41.8535 1.63733 42.2229 1.74743 42.6331C1.85714 43.0434 2.11276 43.3495 2.51429 43.5514C2.7341 43.6688 2.932 43.729 3.108 43.732C3.28362 43.7347 3.44914 43.7141 3.60457 43.6703C3.80381 43.641 3.98248 43.5846 4.14057 43.5011Z" fill="#3B82F6"/>
<path d="M10.2857 20.5714C7.4461 20.5714 5.02191 19.5671 3.01314 17.5583C1.00438 15.5495 0 13.1253 0 10.2857C0 7.408 1.00438 4.97428 3.01314 2.98457C5.02191 0.994856 7.4461 0 10.2857 0C13.1634 0 15.5971 0.994856 17.5869 2.98457C19.5766 4.97428 20.5714 7.408 20.5714 10.2857C20.5714 13.1253 19.5766 15.5495 17.5869 17.5583C15.5971 19.5671 13.1634 20.5714 10.2857 20.5714ZM10.2857 17.9777C12.4453 17.9777 14.2672 17.2261 15.7514 15.7229C17.2356 14.2196 17.9777 12.4072 17.9777 10.2857C17.9777 8.1261 17.2356 6.30419 15.7514 4.82C14.2672 3.33581 12.4453 2.59372 10.2857 2.59372C8.16419 2.59372 6.35181 3.33581 4.84857 4.82C3.34533 6.30419 2.59371 8.1261 2.59371 10.2857C2.59371 12.4072 3.34533 14.2196 4.84857 15.7229C6.35181 17.2261 8.16419 17.9777 10.2857 17.9777Z" fill="#EF4444"/>
<path d="M33.0109 48C32.1027 48 31.3261 47.6777 30.6811 47.0331C30.0366 46.3882 29.7143 45.6116 29.7143 44.7034V33.0109C29.7143 32.1027 30.0366 31.3261 30.6811 30.6811C31.3261 30.0366 32.1027 29.7143 33.0109 29.7143H44.7034C45.6116 29.7143 46.3882 30.0366 47.0331 30.6811C47.6777 31.3261 48 32.1027 48 33.0109V44.7034C48 45.6116 47.6777 46.3882 47.0331 47.0331C46.3882 47.6777 45.6116 48 44.7034 48H33.0109ZM33.0109 45.4063H44.7034C44.9084 45.4063 45.0768 45.3404 45.2086 45.2086C45.3404 45.0768 45.4063 44.9084 45.4063 44.7034V33.0109C45.4063 32.8059 45.3404 32.6375 45.2086 32.5057C45.0768 32.3739 44.9084 32.308 44.7034 32.308H33.0109C32.8059 32.308 32.6375 32.3739 32.5057 32.5057C32.3739 32.6375 32.308 32.8059 32.308 33.0109V44.7034C32.308 44.9084 32.3739 45.0768 32.5057 45.2086C32.6375 45.3404 32.8059 45.4063 33.0109 45.4063Z" fill="#F59E0B"/>
</svg>
