<svg xmlns="http://www.w3.org/2000/svg" height="20px" viewBox="0 -960 960 960" width="20px" fill="00000099 "><path d="M595.38-364.62Zm-179.69 244q-26.52 0-45.41-18.89-18.89-18.89-18.89-45.41V-258q0-11.05 7.41-18.53 7.42-7.47 18.39-7.47 10.96 0 18.58 7.47 7.61 7.48 7.61 18.53v73.08q0 5.38 3.47 8.84 3.46 3.46 8.84 3.46h359.39q5.38 0 8.84-3.46t3.46-8.84v-359.39q0-5.38-3.46-8.84-3.46-3.47-8.84-3.47H702q-11.05 0-18.53-7.41-7.47-7.42-7.47-18.39 0-10.96 7.47-18.58 7.48-7.61 18.53-7.61h73.08q26.52 0 45.41 18.89 18.89 18.89 18.89 45.41v359.39q0 26.52-18.89 45.41-18.89 18.89-45.41 18.89H415.69Zm-223.84-301.7q-71.23-70.94-71.23-172.77 0-101.83 70.93-173.06 70.94-71.23 172.77-71.23 101.83 0 173.06 70.93 71.23 70.94 71.23 172.77 0 101.83-70.93 173.06-70.94 71.23-172.77 71.23-101.83 0-173.06-70.93Zm308.77-37.29q56-56.23 56-136 0-79.77-56.23-135.77-56.23-56-136-56-79.77 0-135.77 56.22-56 56.23-56 136 0 79.78 56.22 135.78 56.23 56 136 56 79.78 0 135.78-56.23Zm-136-135.77Z"/></svg>